<svg viewBox="0 0 183 18" fill="none" xmlns="http://www.w3.org/2000/svg">
<circle cx="8" cy="8.78418" r="8" fill="#09cd9f"/>
<path d="M174.106 17.5679C172.938 17.5679 171.898 17.3119 170.986 16.7999C170.074 16.2719 169.362 15.5439 168.85 14.6159C168.338 13.6879 168.082 12.6079 168.082 11.3759C168.082 10.1279 168.33 9.03189 168.826 8.08789C169.338 7.14389 170.05 6.40789 170.962 5.87989C171.874 5.35189 172.93 5.08789 174.13 5.08789C175.314 5.08789 176.338 5.35189 177.202 5.87989C178.082 6.39189 178.754 7.07989 179.218 7.94389C179.698 8.79189 179.938 9.75189 179.938 10.8239C179.938 10.9839 179.938 11.1599 179.938 11.3519C179.938 11.5279 179.93 11.7279 179.914 11.9519H170.002V10.1759H177.298C177.25 9.27989 176.93 8.56789 176.338 8.03989C175.746 7.51189 175.01 7.24789 174.13 7.24789C173.506 7.24789 172.93 7.39189 172.402 7.67989C171.874 7.95189 171.45 8.35989 171.13 8.90389C170.826 9.43189 170.674 10.1039 170.674 10.9199V11.6159C170.674 12.4159 170.826 13.0959 171.13 13.6559C171.434 14.2159 171.85 14.6479 172.378 14.9519C172.906 15.2399 173.482 15.3839 174.106 15.3839C174.81 15.3839 175.402 15.2239 175.882 14.9039C176.362 14.5839 176.714 14.1519 176.938 13.6079H179.602C179.394 14.3599 179.034 15.0399 178.522 15.6479C178.01 16.2399 177.386 16.7119 176.65 17.0639C175.914 17.3999 175.066 17.5679 174.106 17.5679Z" fill="#09cd9f"/>
<path d="M154.287 17.2799V5.37589H156.639L156.807 7.43989C157.191 6.71989 157.735 6.15189 158.439 5.73589C159.143 5.30389 159.959 5.08789 160.887 5.08789C161.863 5.08789 162.695 5.28789 163.383 5.68789C164.071 6.08789 164.599 6.68789 164.967 7.48789C165.351 8.28789 165.543 9.27989 165.543 10.4639V17.2799H162.903V10.7279C162.903 9.62389 162.671 8.78389 162.207 8.20789C161.743 7.61589 161.047 7.31989 160.119 7.31989C159.511 7.31989 158.959 7.47189 158.463 7.77589C157.983 8.07989 157.607 8.51189 157.335 9.07189C157.063 9.63189 156.927 10.3199 156.927 11.1359V17.2799H154.287Z" fill="#09cd9f"/>
<path d="M148.291 17.28V5.376H150.931V17.28H148.291ZM149.611 3.192C149.115 3.192 148.707 3.04 148.387 2.736C148.083 2.432 147.931 2.048 147.931 1.584C147.931 1.12 148.083 0.744 148.387 0.456C148.707 0.152 149.115 0 149.611 0C150.107 0 150.515 0.152 150.835 0.456C151.171 0.744 151.339 1.12 151.339 1.584C151.339 2.048 151.171 2.432 150.835 2.736C150.515 3.04 150.107 3.192 149.611 3.192Z" fill="#09cd9f"/>
<path d="M133.92 17.28V0H136.56V7.296C136.96 6.608 137.504 6.072 138.192 5.688C138.896 5.288 139.688 5.088 140.568 5.088C141.528 5.088 142.352 5.288 143.04 5.688C143.728 6.088 144.256 6.688 144.624 7.488C144.992 8.288 145.176 9.28 145.176 10.464V17.28H142.56V10.728C142.56 9.624 142.336 8.784 141.888 8.208C141.44 7.616 140.752 7.32 139.824 7.32C139.2 7.32 138.64 7.472 138.144 7.776C137.648 8.08 137.256 8.512 136.968 9.072C136.696 9.632 136.56 10.32 136.56 11.136V17.28H133.92Z" fill="#09cd9f"/>
<path d="M125.499 17.5679C124.315 17.5679 123.259 17.3039 122.331 16.7759C121.403 16.2479 120.675 15.5199 120.147 14.5919C119.635 13.6479 119.379 12.5599 119.379 11.3279C119.379 10.0959 119.635 9.01589 120.147 8.08789C120.675 7.14389 121.403 6.40789 122.331 5.87989C123.259 5.35189 124.315 5.08789 125.499 5.08789C126.971 5.08789 128.211 5.47189 129.219 6.23989C130.227 7.00789 130.867 8.05589 131.139 9.38389H128.379C128.235 8.74389 127.891 8.24789 127.347 7.89589C126.819 7.52789 126.195 7.34389 125.475 7.34389C124.851 7.34389 124.283 7.49589 123.771 7.79989C123.259 8.10389 122.843 8.55189 122.523 9.14389C122.219 9.73589 122.067 10.4639 122.067 11.3279C122.067 11.9679 122.155 12.5359 122.331 13.0319C122.523 13.5279 122.771 13.9519 123.075 14.3039C123.395 14.6399 123.755 14.8959 124.155 15.0719C124.571 15.2479 125.011 15.3359 125.475 15.3359C125.955 15.3359 126.395 15.2559 126.795 15.0959C127.195 14.9359 127.531 14.7039 127.803 14.3999C128.091 14.0799 128.283 13.7039 128.379 13.2719H131.139C130.867 14.5679 130.227 15.6079 129.219 16.3919C128.211 17.1759 126.971 17.5679 125.499 17.5679Z" fill="#09cd9f"/>
<path d="M110.319 17.5679C109.311 17.5679 108.479 17.4079 107.823 17.0879C107.167 16.7519 106.679 16.3119 106.359 15.7679C106.039 15.2079 105.879 14.5999 105.879 13.9439C105.879 13.1599 106.079 12.4959 106.479 11.9519C106.879 11.3919 107.463 10.9599 108.231 10.6559C109.015 10.3519 109.959 10.1999 111.063 10.1999H114.159C114.159 9.54389 114.055 8.99989 113.847 8.56789C113.655 8.13589 113.359 7.81589 112.959 7.60789C112.575 7.38389 112.095 7.27189 111.519 7.27189C110.815 7.27189 110.207 7.43989 109.695 7.77589C109.183 8.09589 108.871 8.58389 108.759 9.23989H106.143C106.239 8.37589 106.535 7.63989 107.031 7.03189C107.527 6.40789 108.167 5.92789 108.951 5.59189C109.735 5.25589 110.591 5.08789 111.519 5.08789C112.639 5.08789 113.591 5.28789 114.375 5.68789C115.159 6.07189 115.759 6.63189 116.175 7.36789C116.591 8.08789 116.799 8.95189 116.799 9.95989V17.2799H114.519L114.279 15.2879C114.119 15.6079 113.911 15.9119 113.655 16.1999C113.415 16.4719 113.135 16.7119 112.815 16.9199C112.495 17.1119 112.127 17.2639 111.711 17.3759C111.295 17.5039 110.831 17.5679 110.319 17.5679ZM110.871 15.4559C111.367 15.4559 111.807 15.3599 112.191 15.1679C112.591 14.9759 112.927 14.7199 113.199 14.3999C113.487 14.0639 113.703 13.6879 113.847 13.2719C113.991 12.8559 114.079 12.4239 114.111 11.9759H111.327C110.687 11.9759 110.167 12.0559 109.767 12.2159C109.383 12.3599 109.103 12.5679 108.927 12.8399C108.751 13.0959 108.663 13.3999 108.663 13.7519C108.663 14.1039 108.751 14.4079 108.927 14.6639C109.103 14.9199 109.351 15.1199 109.671 15.2639C110.007 15.3919 110.407 15.4559 110.871 15.4559Z" fill="#09cd9f"/>
<path d="M85.5 17.28V0.47998H88.644L94.26 11.544L99.852 0.47998H102.972V17.28H100.332V5.03998L95.268 14.88H93.228L88.14 5.03998V17.28H85.5Z" fill="#09cd9f"/>
<path d="M76.9576 17.5679C75.7896 17.5679 74.7496 17.3119 73.8376 16.7999C72.9256 16.2719 72.2136 15.5439 71.7016 14.6159C71.1896 13.6879 70.9336 12.6079 70.9336 11.3759C70.9336 10.1279 71.1816 9.03189 71.6776 8.08789C72.1896 7.14389 72.9016 6.40789 73.8136 5.87989C74.7256 5.35189 75.7816 5.08789 76.9816 5.08789C78.1656 5.08789 79.1896 5.35189 80.0536 5.87989C80.9336 6.39189 81.6056 7.07989 82.0696 7.94389C82.5496 8.79189 82.7896 9.75189 82.7896 10.8239C82.7896 10.9839 82.7896 11.1599 82.7896 11.3519C82.7896 11.5279 82.7816 11.7279 82.7656 11.9519H72.8536V10.1759H80.1496C80.1016 9.27989 79.7816 8.56789 79.1896 8.03989C78.5976 7.51189 77.8616 7.24789 76.9816 7.24789C76.3576 7.24789 75.7816 7.39189 75.2536 7.67989C74.7256 7.95189 74.3016 8.35989 73.9816 8.90389C73.6776 9.43189 73.5256 10.1039 73.5256 10.9199V11.6159C73.5256 12.4159 73.6776 13.0959 73.9816 13.6559C74.2856 14.2159 74.7016 14.6479 75.2296 14.9519C75.7576 15.2399 76.3336 15.3839 76.9576 15.3839C77.6616 15.3839 78.2536 15.2239 78.7336 14.9039C79.2136 14.5839 79.5656 14.1519 79.7896 13.6079H82.4536C82.2456 14.3599 81.8856 15.0399 81.3736 15.6479C80.8616 16.2399 80.2376 16.7119 79.5016 17.0639C78.7656 17.3999 77.9176 17.5679 76.9576 17.5679Z" fill="#09cd9f"/>
<path d="M63.766 17.5679C62.774 17.5679 61.886 17.3999 61.102 17.0639C60.318 16.7279 59.686 16.2559 59.206 15.6479C58.742 15.0399 58.462 14.3359 58.366 13.5359H61.03C61.11 13.8879 61.262 14.2159 61.486 14.5199C61.726 14.8079 62.038 15.0399 62.422 15.2159C62.806 15.3919 63.254 15.4799 63.766 15.4799C64.262 15.4799 64.67 15.4079 64.99 15.2639C65.31 15.1199 65.542 14.9279 65.686 14.6879C65.846 14.4479 65.926 14.1999 65.926 13.9439C65.926 13.5279 65.814 13.2159 65.59 13.0079C65.382 12.7999 65.07 12.6319 64.654 12.5039C64.254 12.3759 63.766 12.2559 63.19 12.1439C62.694 12.0319 62.19 11.8959 61.678 11.7359C61.166 11.5759 60.694 11.3759 60.262 11.1359C59.83 10.8799 59.486 10.5599 59.23 10.1759C58.974 9.79189 58.846 9.31989 58.846 8.75989C58.846 8.05589 59.03 7.43189 59.398 6.88789C59.766 6.32789 60.294 5.88789 60.982 5.56789C61.67 5.24789 62.486 5.08789 63.43 5.08789C64.79 5.08789 65.886 5.40789 66.718 6.04789C67.55 6.68789 68.03 7.59189 68.158 8.75989H65.638C65.558 8.26389 65.326 7.87989 64.942 7.60789C64.558 7.33589 64.054 7.19989 63.43 7.19989C62.774 7.19989 62.278 7.32789 61.942 7.58389C61.606 7.82389 61.438 8.14389 61.438 8.54389C61.438 8.81589 61.542 9.05589 61.75 9.26389C61.974 9.45589 62.286 9.62389 62.686 9.76789C63.086 9.89589 63.55 10.0239 64.078 10.1519C64.894 10.3279 65.638 10.5359 66.31 10.7759C66.982 10.9999 67.526 11.3439 67.942 11.8079C68.374 12.2559 68.59 12.9039 68.59 13.7519C68.606 14.4879 68.414 15.1439 68.014 15.7199C67.614 16.2959 67.054 16.7519 66.334 17.0879C65.63 17.4079 64.774 17.5679 63.766 17.5679Z" fill="#09cd9f"/>
<path d="M49.1794 17.568C48.2354 17.568 47.4114 17.368 46.7074 16.968C46.0194 16.568 45.4834 15.968 45.0994 15.168C44.7314 14.368 44.5474 13.376 44.5474 12.192V5.37598H47.1874V11.928C47.1874 13.048 47.4114 13.896 47.8594 14.472C48.3234 15.048 49.0194 15.336 49.9474 15.336C50.5714 15.336 51.1234 15.184 51.6034 14.88C52.0994 14.576 52.4834 14.144 52.7554 13.584C53.0274 13.024 53.1634 12.336 53.1634 11.52V5.37598H55.8034V17.28H53.4514L53.2834 15.216C52.8994 15.936 52.3474 16.512 51.6274 16.944C50.9234 17.36 50.1074 17.568 49.1794 17.568Z" fill="#09cd9f"/>
<path d="M24 17.28V0.47998H27.144L32.76 11.544L38.352 0.47998H41.472V17.28H38.832V5.03998L33.768 14.88H31.728L26.64 5.03998V17.28H24Z" fill="#09cd9f"/>
</svg>
